<svg width="24" height="24" viewBox="0 0 24 24" fill="none" xmlns="http://www.w3.org/2000/svg">
<path fill-rule="evenodd" clip-rule="evenodd" d="M12.5 2.25C12.9142 2.25 13.25 2.58579 13.25 3C13.25 3.41421 12.9142 3.75 12.5 3.75H5C4.66848 3.75 4.35063 3.88179 4.11621 4.11621C3.88179 4.35063 3.75 4.66848 3.75 5V19C3.75 19.3315 3.88179 19.6494 4.11621 19.8838C4.35063 20.1182 4.66848 20.25 5 20.25H5.68945L14.5557 11.3838C15.0713 10.8684 15.7709 10.5781 16.5 10.5781C17.2291 10.5781 17.9287 10.8674 18.4443 11.3828L20.25 13.1895V11.5C20.25 11.0858 20.5858 10.75 21 10.75C21.4142 10.75 21.75 11.0858 21.75 11.5V19C21.75 19.7293 21.4601 20.4286 20.9443 20.9443C20.4286 21.4601 19.7293 21.75 19 21.75H5C4.27065 21.75 3.57139 21.4601 3.05566 20.9443C2.53994 20.4286 2.25 19.7293 2.25 19V5C2.25 4.27065 2.53994 3.57139 3.05566 3.05566C3.57139 2.53994 4.27065 2.25 5 2.25H12.5ZM16.5 12.0781C16.1685 12.0781 15.8506 12.21 15.6162 12.4443L7.81055 20.25H19C19.3315 20.25 19.6494 20.1182 19.8838 19.8838C20.1182 19.6494 20.25 19.3315 20.25 19V15.3105L17.3838 12.4443C17.1494 12.21 16.8315 12.0781 16.5 12.0781Z" fill="#8F8F8F"/>
<path fill-rule="evenodd" clip-rule="evenodd" d="M9 6.25C10.5188 6.25 11.75 7.48122 11.75 9C11.75 10.5188 10.5188 11.75 9 11.75C7.48122 11.75 6.25 10.5188 6.25 9C6.25 7.48122 7.48122 6.25 9 6.25ZM9 7.75C8.30964 7.75 7.75 8.30964 7.75 9C7.75 9.69036 8.30964 10.25 9 10.25C9.69036 10.25 10.25 9.69036 10.25 9C10.25 8.30964 9.69036 7.75 9 7.75Z" fill="#8F8F8F"/>
<path d="M19 1.25C19.4142 1.25 19.75 1.58579 19.75 2V4.25H22C22.4142 4.25 22.75 4.58579 22.75 5C22.75 5.41421 22.4142 5.75 22 5.75H19.75V8C19.75 8.41421 19.4142 8.75 19 8.75C18.5858 8.75 18.25 8.41421 18.25 8V5.75H16C15.5858 5.75 15.25 5.41421 15.25 5C15.25 4.58579 15.5858 4.25 16 4.25H18.25V2C18.25 1.58579 18.5858 1.25 19 1.25Z" fill="#8F8F8F"/>
</svg>
