<svg width="24" height="24" viewBox="0 0 24 24" fill="none" xmlns="http://www.w3.org/2000/svg">
<g clip-path="url(#clip0_38_16917)">
<path d="M18.4697 4.46979C18.7626 4.1769 19.2373 4.1769 19.5302 4.46979C19.823 4.7627 19.8231 5.23751 19.5302 5.53034L13.0605 12.0001L19.5302 18.4698C19.823 18.7627 19.8231 19.2375 19.5302 19.5304C19.2374 19.8232 18.7626 19.8231 18.4697 19.5304L11.9999 13.0606L5.53021 19.5304C5.23737 19.8232 4.76256 19.8231 4.46966 19.5304C4.17677 19.2375 4.17679 18.7627 4.46966 18.4698L10.9394 12.0001L4.46966 5.53034C4.17677 5.23745 4.17679 4.76269 4.46966 4.46979C4.76256 4.1769 5.23732 4.1769 5.53021 4.46979L11.9999 10.9395L18.4697 4.46979Z" fill="#121212"/>
</g>
<defs>
<clipPath id="clip0_38_16917">
<rect width="24" height="24" fill="white"/>
</clipPath>
</defs>
</svg>
